<?xml version="1.0" encoding="utf-8"?>
<!-- Generator: Adobe Illustrator 16.0.0, SVG Export Plug-In . SVG Version: 6.00 Build 0)  -->
<!DOCTYPE svg PUBLIC "-//W3C//DTD SVG 1.1//EN" "http://www.w3.org/Graphics/SVG/1.1/DTD/svg11.dtd">
<svg version="1.1" id="Layer_1" xmlns="http://www.w3.org/2000/svg" xmlns:xlink="http://www.w3.org/1999/xlink" x="0px" y="0px"
	 width="136.277px" height="40.042px" viewBox="0 0 136.277 40.042" enable-background="new 0 0 136.277 40.042"
	 xml:space="preserve">
<g>
	<path fill-rule="evenodd" clip-rule="evenodd" fill="#332D59" d="M37.988,0h5.487v20.692h-5.487V0L37.988,0z M75.881,0h4.699v4.354
		h1.848v2.509H80.58v13.829h-4.699V6.863h-1.848V4.354h1.848V0L75.881,0z M73.4,11.523c-0.002-4.161-2.465-7.043-6.115-7.043h-2.841
		h-2.376h-1.744l0,2.105h4.12h0.284v0.004c2.293,0.057,3.434,0.827,3.487,3.07v0.592v0.432h-4.04c-3.846,0-5.526,2.253-5.526,5.004
		v0c0,2.751,2.016,5.004,5.457,5.004h2.698h3.012v-0.004l3.588-0.006L73.4,11.523L73.4,11.523z M68.355,12.785h-1.993
		c-1.71,0-3.109,1.305-3.109,2.899l0,0c0,1.595,1.399,2.899,3.109,2.899h1.993V12.785L68.355,12.785z M45.715,10.251v4.669v0.015
		c0,3.762,2.952,5.757,5.185,5.757h3.771h2.377h0.341v-2.106h-2.718h-0.284v-0.004c-2.293-0.056-3.434-0.827-3.487-3.07V14.92
		v-4.669V9.66c0.054-2.244,1.194-3.014,3.487-3.071V6.585h0.284h2.718V4.479h-0.341h-2.377H50.9c-2.233,0-5.185,1.995-5.185,5.757
		V10.251L45.715,10.251z M84.074,4.859v10.076c0,3.762,2.945,5.757,5.174,5.757h3.762h2.371h2.801V4.859H93.01v11.674v2.053
		c-2.477,0-3.707-0.74-3.762-3.074V4.859H84.074L84.074,4.859z"/>
	<path fill="#332D59" d="M13.734,36.933c0.028-1.535,0.042-3.242,0.042-5.119c0-1.908-0.014-3.619-0.042-5.129
		c-0.021-0.785-0.042-1.367-0.063-1.746c-0.017-0.383-0.045-0.75-0.08-1.105c0.501,0.039,1.066,0.059,1.698,0.059
		c0.635,0,1.203-0.02,1.705-0.059c-0.035,0.355-0.063,0.723-0.081,1.105c-0.021,0.379-0.042,0.961-0.063,1.746
		c-0.028,1.066-0.039,2.213-0.032,3.441l0,0c0.972,0.111,2.031,0.174,3.176,0.182c1.157,0,2.228-0.066,3.207-0.193l0,0
		c0-1.221-0.014-2.363-0.042-3.43c-0.021-0.785-0.042-1.367-0.063-1.746c-0.018-0.383-0.045-0.75-0.081-1.105
		c0.502,0.039,1.066,0.059,1.698,0.059c0.635,0,1.203-0.02,1.705-0.059c-0.035,0.355-0.063,0.723-0.081,1.105
		c-0.021,0.379-0.042,0.961-0.063,1.746c-0.028,1.525-0.042,3.232-0.042,5.117c0,1.9,0.014,3.613,0.042,5.131
		c0.021,0.783,0.042,1.367,0.063,1.744c0.017,0.383,0.045,0.75,0.081,1.105c-0.502-0.039-1.066-0.057-1.698-0.057
		c-0.635,0-1.203,0.018-1.705,0.057c0.035-0.355,0.063-0.723,0.081-1.105c0.021-0.377,0.042-0.961,0.063-1.748l0.052-4.686l0,0
		c-0.982-0.119-2.045-0.182-3.196-0.182c-1.15,0-2.218,0.063-3.196,0.182l0,0c-0.021,1.734-0.011,3.299,0.032,4.686
		c0.021,0.787,0.042,1.371,0.063,1.748c0.018,0.383,0.046,0.75,0.081,1.105c-0.501-0.039-1.066-0.057-1.698-0.057
		c-0.635,0-1.204,0.018-1.705,0.057c0.035-0.355,0.063-0.727,0.08-1.107C13.692,38.296,13.713,37.716,13.734,36.933L13.734,36.933z
		 M29.512,36.933c0.611-1.504,1.274-3.199,1.994-5.096c1.207-3.174,2.161-5.844,2.866-8.012c0.316,0.039,0.586,0.059,0.814,0.059
		c0.225,0,0.498-0.02,0.811-0.059c0.715,2.152,1.656,4.813,2.828,7.988c0.698,1.904,1.34,3.609,1.923,5.119
		c0.344,0.889,0.593,1.521,0.751,1.9c0.158,0.377,0.298,0.695,0.421,0.949c-0.547-0.039-1.172-0.057-1.874-0.057
		c-0.691,0-1.312,0.018-1.859,0.057c-0.208-0.83-0.361-1.436-0.471-1.814c-0.105-0.383-0.214-0.727-0.323-1.039l-0.596-1.742l0,0
		c-0.846-0.105-1.747-0.166-2.705-0.182c-0.828-0.016-1.568,0.053-2.231,0.205l0,0c-0.221,0.578-0.424,1.154-0.604,1.719
		c-0.07,0.189-0.154,0.475-0.252,0.857c-0.099,0.379-0.267,1.047-0.499,1.996c-0.33-0.039-0.702-0.057-1.119-0.057
		c-0.411,0-0.779,0.018-1.109,0.057c0.123-0.242,0.267-0.557,0.432-0.938C28.874,38.466,29.141,37.829,29.512,36.933L29.512,36.933z
		 M34.348,28.261c-0.4,1.057-0.821,2.209-1.263,3.453l-0.614,1.73l0,0c0.562,0.068,1.165,0.096,1.811,0.088
		c0.667-0.008,1.305-0.039,1.912-0.1l0,0l-0.031-0.09c-0.646-1.85-1.25-3.541-1.811-5.082H34.348L34.348,28.261z M43.933,36.933
		c0.028-1.535,0.042-3.242,0.042-5.119c0-1.908-0.014-3.619-0.042-5.129c-0.021-0.785-0.042-1.367-0.063-1.746
		c-0.018-0.383-0.045-0.75-0.081-1.105l1.12,0.059h0.576h1.368l2.477-0.059c1.344,0,2.393,0.363,3.147,1.086
		c0.754,0.727,1.13,1.734,1.13,3.023c0,1.295-0.47,2.311-1.407,3.045c-0.53,0.422-1.183,0.719-1.965,0.893l0,0
		c0.54,1.066,1.217,2.316,2.024,3.758l0.751,1.314c0.488,0.846,0.846,1.455,1.081,1.834c0.232,0.379,0.46,0.719,0.678,1.02
		c-0.562-0.039-1.197-0.059-1.909-0.059c-0.712,0-1.344,0.02-1.898,0.059l0,0c-0.421-0.936-0.986-2.078-1.698-3.43
		c-0.846-1.607-1.593-2.994-2.246-4.156l0,0c-0.014,1.742-0.003,3.314,0.032,4.709c0.021,0.787,0.042,1.371,0.063,1.748
		c0.017,0.383,0.045,0.75,0.081,1.105c-0.502-0.039-1.067-0.057-1.698-0.057c-0.635,0-1.203,0.018-1.706,0.057
		c0.036-0.355,0.063-0.727,0.081-1.107C43.891,38.296,43.912,37.716,43.933,36.933L43.933,36.933z M46.975,31.315L46.975,31.315
		l0.628,0.035c0.783,0,1.411-0.309,1.884-0.928c0.477-0.621,0.716-1.436,0.716-2.457c0-0.877-0.2-1.549-0.597-2.023
		c-0.396-0.475-0.961-0.715-1.694-0.715c-0.323,0-0.635,0.027-0.937,0.082l0,0V31.315L46.975,31.315z M59.216,32.651v-7.311l0,0
		c-0.719,0.006-1.435,0.029-2.147,0.068c-0.832,0.051-1.386,0.107-1.667,0.17c0.042-0.277,0.063-0.594,0.063-0.941
		c0-0.344-0.021-0.662-0.063-0.939c0.439,0.063,1.154,0.111,2.144,0.158c0.989,0.047,1.93,0.07,2.821,0.07h0.372h0.369
		c0.891,0,1.832-0.023,2.821-0.07s1.705-0.096,2.144-0.158c-0.042,0.277-0.063,0.596-0.063,0.939c0,0.348,0.021,0.664,0.063,0.941
		c-0.281-0.063-0.835-0.119-1.667-0.17c-0.712-0.039-1.428-0.063-2.147-0.068l0,0v7.311c0,1.713,0.011,3.045,0.032,3.994
		c0.021,0.951,0.063,1.998,0.133,3.137c-0.495-0.039-1.052-0.057-1.677-0.057c-0.628,0-1.193,0.018-1.694,0.057
		c0.07-1.139,0.112-2.186,0.133-3.137C59.206,35.696,59.216,34.364,59.216,32.651L59.216,32.651z M68.444,36.933
		c0.028-1.535,0.042-3.262,0.042-5.188c0-1.924-0.014-3.65-0.042-5.186c-0.021-0.783-0.042-1.367-0.063-1.744
		c-0.018-0.383-0.045-0.75-0.081-1.105c0.369,0.055,0.867,0.096,1.484,0.131c0.621,0.035,1.201,0.051,1.734,0.051l0,0h0.799
		c0.912,0,1.783-0.02,2.611-0.059c0.83-0.037,1.34-0.08,1.533-0.135c-0.043,0.277-0.063,0.596-0.063,0.939
		c0,0.348,0.02,0.664,0.063,0.941c-0.238-0.063-0.723-0.111-1.449-0.154s-1.453-0.063-2.18-0.063h-0.398
		c-0.309-0.008-0.615,0-0.916,0.023l0,0v5.408l0,0l1.592-0.012c0.598,0,1.207-0.02,1.824-0.057c0.621-0.039,1.051-0.082,1.281-0.137
		c-0.041,0.279-0.063,0.6-0.063,0.951c0,0.355,0.021,0.676,0.063,0.953c-0.23-0.053-0.66-0.096-1.281-0.135
		c-0.617-0.039-1.227-0.059-1.824-0.059l-1.592-0.01l0,0v1.787c0,1.141,0.01,2.09,0.031,2.848c0.021,0.756,0.063,1.711,0.133,2.857
		c-0.494-0.039-1.057-0.057-1.688-0.057c-0.627,0-1.193,0.018-1.695,0.057c0.036-0.355,0.063-0.727,0.081-1.107
		C68.401,38.296,68.422,37.716,68.444,36.933L68.444,36.933z M85.805,40.042c-2.365,0-4.268-0.715-5.705-2.145
		c-1.439-1.43-2.158-3.322-2.158-5.678c0-2.6,0.719-4.693,2.158-6.273c1.438-1.58,3.34-2.371,5.705-2.371
		c2.371,0,4.273,0.719,5.707,2.15c1.436,1.434,2.154,3.326,2.154,5.68c0,2.596-0.719,4.686-2.154,6.264
		C90.078,39.249,88.176,40.042,85.805,40.042L85.805,40.042z M85.805,38.569c1.367,0,2.455-0.641,3.256-1.928
		c0.803-1.285,1.203-3.023,1.203-5.215c0-1.949-0.4-3.502-1.203-4.654c-0.801-1.15-1.889-1.727-3.256-1.727
		c-1.365,0-2.445,0.643-3.254,1.928c-0.803,1.287-1.205,3.029-1.205,5.223c0,1.955,0.402,3.508,1.205,4.654
		C83.359,37.999,84.439,38.569,85.805,38.569L85.805,38.569z M96.334,36.933c0.027-1.535,0.041-3.242,0.041-5.119
		c0-1.908-0.014-3.619-0.041-5.129c-0.021-0.785-0.043-1.367-0.063-1.746c-0.02-0.383-0.047-0.75-0.082-1.105l1.119,0.059h0.576
		h1.367l2.479-0.059c1.344,0,2.393,0.363,3.146,1.086c0.754,0.727,1.129,1.734,1.129,3.023c0,1.295-0.469,2.311-1.406,3.045
		c-0.529,0.422-1.182,0.719-1.965,0.893l0,0c0.541,1.066,1.217,2.316,2.025,3.758l0.75,1.314c0.488,0.846,0.846,1.455,1.08,1.834
		c0.232,0.379,0.461,0.719,0.678,1.02c-0.561-0.039-1.195-0.059-1.908-0.059s-1.344,0.02-1.898,0.059l0,0
		c-0.422-0.936-0.986-2.078-1.699-3.43c-0.846-1.607-1.592-2.994-2.244-4.156l0,0c-0.014,1.742-0.004,3.314,0.031,4.709
		c0.021,0.787,0.043,1.371,0.063,1.748c0.018,0.383,0.047,0.75,0.082,1.105c-0.502-0.039-1.066-0.057-1.699-0.057
		c-0.635,0-1.203,0.018-1.705,0.057c0.035-0.355,0.063-0.727,0.082-1.107C96.291,38.296,96.313,37.716,96.334,36.933L96.334,36.933z
		 M99.375,31.315L99.375,31.315l0.629,0.035c0.783,0,1.41-0.309,1.883-0.928c0.479-0.621,0.717-1.436,0.717-2.457
		c0-0.877-0.199-1.549-0.598-2.023c-0.395-0.475-0.961-0.715-1.693-0.715c-0.322,0-0.635,0.027-0.938,0.082l0,0V31.315
		L99.375,31.315z M109.332,37.044c0.029-1.541,0.043-3.283,0.043-5.23s-0.014-3.693-0.043-5.24c-0.02-0.785-0.041-1.369-0.063-1.748
		c-0.018-0.381-0.045-0.748-0.08-1.104c0.451,0.084,0.996,0.139,1.627,0.17c0.635,0.031,1.184,0.031,1.643,0l0,0
		c0.754-0.055,1.449-0.096,2.088-0.131c0.635-0.035,1.039-0.051,1.209-0.051c2.229,0,3.941,0.668,5.137,2.008
		c1.197,1.342,1.793,3.254,1.793,5.744c0,2.709-0.672,4.795-2.023,6.254c-1.352,1.461-3.281,2.191-5.789,2.191
		c-0.197,0-0.629-0.016-1.295-0.051c-0.664-0.035-1.375-0.078-2.127-0.131l0,0c-0.309-0.023-0.684-0.016-1.123,0.014
		c-0.438,0.035-0.816,0.086-1.139,0.156c0.035-0.355,0.063-0.727,0.08-1.109C109.291,38.407,109.313,37.829,109.332,37.044
		L109.332,37.044z M112.469,38.188L112.469,38.188c0.611,0.072,1.277,0.107,2.004,0.1c1.576,0,2.771-0.592,3.586-1.777
		c0.818-1.186,1.225-2.916,1.225-5.195c0-1.955-0.414-3.441-1.242-4.457c-0.832-1.02-2.043-1.529-3.639-1.529
		c-0.695,0-1.336,0.029-1.934,0.088l0,0c-0.041,1.826-0.063,3.955-0.063,6.385C112.406,34.239,112.428,36.368,112.469,38.188
		L112.469,38.188z"/>
	<path fill="#332D59" d="M1.134,14.067h36.854v2.268H2.268v11.412h11.701v2.268H1.134H0V28.88V15.201v-1.134H1.134L1.134,14.067z
		 M98.182,14.067h36.961h1.135v1.134V28.88v1.135h-1.135h-12.838v-2.268h11.705V16.335H98.182V14.067L98.182,14.067z"/>
</g>
</svg>
